# xmcd CD database file
#
# Track frame offsets:
#	150
#	20070
#	41157
#	62056
#	84111
#	104484
#	129531
#	149493
#	175249
#	196440
#	220254
#	241268
#	263107
#	281923
#
# Disc length: 4011 seconds
#
# Revision: 0
# Processed by: cddbd v1.5.1PL2 Copyright (c) Steve Scherf et al.
# Submitted via: CDex 1.51
#
DISCID=d60fa90e
DTITLE=Clifton DeMarks - A Quiet Storm
DYEAR=2005
DGENRE=Jazz
TTITLE0=Midnight Motion
TTITLE1=Another Sad Love Song
TTITLE2=A Long Way From Brooklyn
TTITLE3=Exotica
TTITLE4=Going Home
TTITLE5=Deeper Than You Think
TTITLE6=Vinyl
TTITLE7=Mercy Mercy Me
TTITLE8=Angel of Mine
TTITLE9=Venice Beach
TTITLE10=Morning
TTITLE11=Body Language
TTITLE12=Simply Said
TTITLE13=A Quiet Storm
EXTD=YEAR: 2005
EXTT0=
EXTT1=
EXTT2=
EXTT3=
EXTT4=
EXTT5=
EXTT6=
EXTT7=
EXTT8=
EXTT9=
EXTT10=
EXTT11=
EXTT12=
EXTT13=
PLAYORDER=
